<svg width="302" height="76" viewBox="0 0 302 76" fill="none" xmlns="http://www.w3.org/2000/svg">
<g clip-path="url(#clip0_315_384)">
<path d="M286.658 45.9327C293.215 45.9328 298.16 49.5695 300.331 54.5257C302.503 59.4816 301.874 65.693 297.457 70.7847L297.455 70.7876C293.874 74.8755 288.075 74.9194 283.348 72.7143C278.609 70.5035 274.601 65.8892 274.601 60.1783C274.601 58.7272 275.082 57.1213 275.82 55.5638C276.563 53.9959 277.595 52.4209 278.764 51.0177C279.931 49.6158 281.253 48.3624 282.588 47.4526C283.905 46.5544 285.321 45.9328 286.658 45.9327ZM288.159 52.1939C285.943 52.2697 283.704 53.7509 281.952 56.4374L281.95 56.44L281.949 56.4422C280.507 58.6174 280.237 60.9456 280.916 63.0663C281.578 65.1345 283.165 67.0733 285.595 68.4783L285.832 68.6126L285.838 68.6155L285.843 68.6187C289.28 70.5831 292.603 69.3844 294.603 66.8034C296.623 64.1973 297.211 60.2656 295.074 56.9298C292.816 53.4049 290.346 52.1193 288.159 52.1939Z" fill="#d9c5ae"/>
<path d="M236.56 61.2709C236.56 57.6229 236.996 54.1237 237.429 51.543C237.646 50.2509 237.863 49.1846 238.026 48.4398C238.218 47.5671 238.444 46.706 238.669 45.8413C239.164 46.3397 239.66 46.8382 240.156 47.3365C240.443 47.6268 240.855 48.0397 241.343 48.5306C242.319 49.5123 243.605 50.8059 244.843 52.0526C245.843 53.0588 247.423 54.1448 248.799 54.9988C249.477 55.4203 250.091 55.776 250.534 56.0261C250.644 56.0878 250.743 56.1419 250.831 56.1899C250.939 56.117 251.07 56.0274 251.224 55.9184C251.603 55.6487 252.08 55.2983 252.624 54.8942C253.707 54.0902 255.05 53.0797 256.372 52.1242C257.69 51.1713 259.016 50.2529 260.068 49.6335C260.588 49.3277 261.081 49.0706 261.493 48.9254C261.694 48.8547 261.932 48.7894 262.174 48.7853C262.4 48.7815 262.782 48.8345 263.057 49.1642C263.269 49.3931 263.423 49.6879 263.54 49.966C263.671 50.2784 263.789 50.6499 263.898 51.0592C264.114 51.8794 264.307 52.9195 264.475 54.0869C264.812 56.4257 265.061 59.3488 265.19 62.2026C265.319 65.0542 265.331 67.8647 265.189 69.9754C265.119 71.0236 265.007 71.9393 264.841 72.6105C264.759 72.9393 264.65 73.2681 264.491 73.5334C264.348 73.7719 264.022 74.1844 263.456 74.1845C262.614 74.1844 261.893 73.7861 261.319 73.1749C260.755 72.5745 260.304 71.7426 259.95 70.7647C259.24 68.8059 258.849 66.0679 258.849 62.8231C258.849 61.6456 258.837 60.8178 258.764 60.239C258.71 59.8049 258.635 59.646 258.607 59.5996C258.555 59.5943 258.396 59.594 258.042 59.7002C257.513 59.8581 256.785 60.1759 255.746 60.6555L255.734 60.6611L255.722 60.6663C254.978 60.9813 253.969 61.5311 253.122 62.0183C252.704 62.2589 252.335 62.479 252.07 62.6389C251.844 62.7754 251.62 62.9142 251.395 63.0538L251.101 63.0149C250.983 62.9941 250.785 62.9475 250.66 62.91C250.413 62.8351 250.061 62.7087 249.603 62.4961C248.686 62.0713 247.335 61.3008 245.506 59.9058C244.62 59.2295 243.942 58.8096 243.426 58.6362C243.179 58.5528 243.016 58.5432 242.913 58.5577C242.826 58.5699 242.747 58.6033 242.657 58.6907C242.435 58.9074 242.156 59.449 241.955 60.6374C241.76 61.7887 241.659 63.4004 241.659 65.5825C241.659 67.7889 241.616 69.3964 241.534 70.5654C241.453 71.7153 241.33 72.5094 241.138 73.0458C241.041 73.3208 240.906 73.5821 240.704 73.7919C240.486 74.0188 240.23 74.1431 239.97 74.1935C239.678 74.2501 239.401 74.1844 239.11 74.1845C238.601 74.1845 238.261 73.8614 238.077 73.6175C237.883 73.3625 237.737 73.0402 237.62 72.7088C237.384 72.0363 237.193 71.1082 237.039 70.0111C236.732 67.8025 236.56 64.7419 236.56 61.2709Z" fill="#d9c5ae"/>
<path d="M224.526 60.9244C224.526 65.0811 224.354 68.6538 224.049 71.2009C223.897 72.4677 223.708 73.5184 223.477 74.27C223.363 74.6398 223.223 74.9905 223.04 75.2659C222.876 75.5127 222.535 75.9075 221.977 75.9075C221.544 75.9075 221.232 75.6681 221.048 75.4695C220.858 75.2659 220.709 75.0109 220.59 74.7556C220.351 74.2392 220.147 73.5419 219.98 72.7378C219.645 71.1169 219.427 68.9017 219.427 66.4436C219.427 64.1071 219.416 62.371 219.327 61.1131C219.283 60.4853 219.221 60.0049 219.14 59.6439C219.057 59.2736 218.966 59.0933 218.908 59.0146C218.873 58.968 218.871 58.9778 218.864 58.977C218.814 58.9704 218.672 58.9741 218.383 59.0824C217.793 59.3031 216.963 59.8072 215.742 60.597L215.731 60.6042L215.72 60.6107C215.071 61.002 214.213 61.5573 213.48 62.0259C213.119 62.2576 212.785 62.469 212.532 62.6235C212.407 62.7 212.292 62.7685 212.198 62.8197C212.152 62.8446 212.099 62.8725 212.046 62.8963C212.019 62.908 211.981 62.9247 211.935 62.9398C211.909 62.9486 211.798 62.9855 211.655 62.9855C211.51 62.9855 211.399 62.9472 211.375 62.9391C211.33 62.9243 211.291 62.9081 211.265 62.8966C211.213 62.8733 211.159 62.8458 211.113 62.8211C211.019 62.7702 210.9 62.7013 210.769 62.6244C210.516 62.4756 210.142 62.2495 209.762 62.025C208.971 61.5571 208.027 61.0169 207.241 60.6602C206.104 60.1764 205.34 59.8542 204.79 59.7124C204.521 59.6427 204.373 59.6372 204.302 59.6456C204.293 59.6467 204.285 59.6481 204.281 59.6491C204.263 59.6721 204.212 59.7511 204.159 59.9518C204.099 60.1745 204.052 60.4879 204.02 60.924C203.953 61.8002 203.952 63.0224 203.952 64.7187C203.952 67.4577 203.77 69.4863 203.457 70.7998C203.306 71.4391 203.102 72.0075 202.802 72.3988C202.646 72.6015 202.422 72.8143 202.109 72.9191C201.771 73.0325 201.436 72.9843 201.157 72.8439C200.679 72.6031 200.355 72.0926 200.123 71.6167C199.869 71.0948 199.633 70.412 199.416 69.5912C198.982 67.9448 198.601 65.6408 198.342 62.724C198.082 59.7711 197.953 56.9025 197.931 54.6807C197.921 53.571 197.936 52.6128 197.978 51.8811C197.999 51.5163 198.027 51.1959 198.063 50.9359C198.093 50.7122 198.144 50.4236 198.255 50.2001L198.27 50.1712L198.286 50.1437C198.634 49.5611 199.247 49.4207 199.725 49.4284C200.206 49.4361 200.738 49.5848 201.262 49.7956C202.258 50.1961 203.436 50.9089 204.601 51.8033L204.833 51.9847L204.836 51.9872C206.206 53.0812 207.88 54.1662 209.25 54.9814C209.933 55.3878 210.533 55.7228 210.972 55.954C211.125 56.0344 211.256 56.0999 211.362 56.1514C211.477 56.0834 211.623 55.9945 211.796 55.8839C212.26 55.5874 212.896 55.1585 213.619 54.6392C215.069 53.5999 216.846 52.2185 218.311 50.833L224.526 44.8044V60.9244Z" fill="#d9c5ae"/>
<path d="M190.499 49.6282C190.499 49.7201 190.472 49.8105 190.454 49.8709C190.431 49.9418 190.4 50.0222 190.364 50.1083C190.291 50.2814 190.186 50.501 190.055 50.7582C189.795 51.2736 189.421 51.9608 188.963 52.7694C188.049 54.3879 186.796 56.5074 185.436 58.7418C182.72 63.2061 179.57 68.1514 177.851 70.4833C176.681 72.0709 175.323 73.3831 174.042 74.3018C172.779 75.2077 171.531 75.7732 170.587 75.7732H169.633C169.275 75.7732 168.943 75.7056 168.711 75.494C168.457 75.2618 168.415 74.9461 168.456 74.6713C168.494 74.4043 168.613 74.1204 168.759 73.8477C168.908 73.5694 169.098 73.2744 169.304 72.9798C169.703 72.4073 170.215 71.7586 170.577 71.258C170.767 70.9963 170.923 70.7661 171.03 70.5755C171.084 70.4804 171.121 70.4025 171.144 70.3412C171.154 70.3153 171.159 70.2952 171.163 70.2809C171.144 70.2383 171.114 70.176 171.07 70.0918C170.98 69.9223 170.844 69.6878 170.665 69.3931C170.308 68.8049 169.79 67.9947 169.146 67.0204C167.859 65.0726 166.08 62.4795 164.115 59.7176C161.48 56.0194 159.726 53.4285 158.705 51.684C158.197 50.8146 157.857 50.1349 157.686 49.6227C157.599 49.3676 157.547 49.1306 157.547 48.9194C157.547 48.7049 157.601 48.4792 157.772 48.3077L157.866 48.2175C158.345 47.7834 158.926 47.615 159.6 47.7497C160.285 47.8864 161.043 48.3299 161.899 49.0392C163.509 50.373 165.603 52.7673 168.396 56.3537L168.965 57.0868L168.966 57.089L174.652 64.58L179.845 56.8094C182.325 53.0849 183.774 50.9795 184.858 49.8115C185.405 49.2218 185.882 48.8456 186.376 48.6226C186.875 48.3975 187.357 48.3434 187.886 48.3434C188.549 48.3434 189.157 48.441 189.614 48.6229C189.842 48.7137 190.052 48.8333 190.212 48.9901C190.375 49.1505 190.499 49.3663 190.499 49.6282Z" fill="#d9c5ae"/>
<path fill-rule="evenodd" clip-rule="evenodd" d="M121.518 53.2785C121.372 52.6934 121.721 52.2468 121.936 52.0299C122.181 51.7814 122.521 51.5537 122.894 51.342C123.653 50.912 124.762 50.4326 126.141 49.9064L126.398 49.8111C127.73 49.3396 129.72 48.9379 131.949 48.6215C134.344 48.2813 137.08 48.0312 139.699 47.9072C142.314 47.7834 144.839 47.7838 146.807 47.952C147.787 48.0357 148.661 48.1635 149.348 48.3493C149.691 48.4422 150.015 48.5564 150.291 48.7013C150.552 48.8388 150.838 49.0384 151.032 49.3364L151.035 49.3414C151.037 49.3447 151.039 49.3481 151.042 49.3514C151.391 49.8893 151.411 50.4958 151.154 51.0418C150.921 51.5352 150.488 51.9311 150.014 52.244C149.058 52.8766 147.615 53.3796 145.951 53.6763C144.516 53.9652 143.528 54.1891 142.806 54.4996C142.129 54.7906 141.74 55.1355 141.468 55.6661C141.17 56.2474 140.977 57.118 140.872 58.5393C140.768 59.9489 140.756 61.7976 140.756 64.2817C140.756 67.1688 140.566 69.7944 140.222 71.7176C140.051 72.6715 139.836 73.4996 139.564 74.1096C139.43 74.4125 139.26 74.7098 139.038 74.9429C138.813 75.1804 138.472 75.41 138.027 75.4101C137.58 75.41 137.249 75.1528 137.055 74.9556C136.848 74.7426 136.667 74.4682 136.512 74.1768C136.197 73.5879 135.902 72.7798 135.647 71.8278C135.136 69.9143 134.757 67.2891 134.757 64.3637C134.757 64.3165 134.759 64.269 134.761 64.2218C134.764 64.1512 134.768 64.047 134.773 63.9145C134.783 63.6493 134.797 63.2692 134.812 62.8109C134.843 61.8936 134.879 60.6632 134.904 59.409C134.928 58.1528 134.94 56.8804 134.923 55.8766C134.913 55.3735 134.897 54.9491 134.871 54.6329C134.863 54.5217 134.853 54.4299 134.843 54.3565C134.687 54.3082 134.444 54.2663 134.11 54.242C133.437 54.1931 132.556 54.2251 131.658 54.2955C130.766 54.3653 129.888 54.4705 129.231 54.5586C128.903 54.6026 128.631 54.642 128.442 54.6705C128.304 54.6914 128.156 54.7266 128.016 54.7266C126.112 54.7266 124.675 54.6582 123.682 54.5135C123.191 54.442 122.76 54.3451 122.422 54.2047C122.134 54.085 121.653 53.8275 121.518 53.2785Z" fill="#d9c5ae"/>
<path d="M46.106 24.5693C45.5969 25.3454 45.0685 26.1407 44.5198 26.9542C31.5047 46.253 23.6585 64.7801 33.4296 75.9079H0C0.0140221 75.8872 19.2284 47.5248 36.8049 21.5804C36.9849 21.3147 37.1643 21.0518 37.3424 20.7914L51.4345 0H62.7589L46.106 24.5693Z" fill="#d9c5ae"/>
<path d="M36.342 52.8154C41.2561 42.6862 43.1969 45.8971 48.0074 50.2186C55.8608 57.2736 69.7374 75.9079 57.4616 75.9079H40.6848C36.342 75.9079 30.1928 65.4904 36.342 52.8154Z" fill="#d9c5ae"/>
<path d="M103.044 75.9079H77.1805C70.1719 75.9079 67.7384 75.4563 65.7236 70.7724C60.9432 59.6589 58.2127 55.2794 46.8064 43.6629C43.0684 39.8559 47.2746 31.4778 53.8498 23.5992C58.8874 17.5631 62.2561 15.961 62.2561 15.961L103.044 75.9079Z" fill="#d9c5ae"/>
</g>
<defs>
<clipPath id="clip0_315_384">
<rect width="302" height="76" fill="#d9c5ae"/>
</clipPath>
</defs>
</svg>
