<svg width="136" height="130" viewBox="0 0 136 130" fill="none" xmlns="http://www.w3.org/2000/svg">
<path d="M124.176 106.926C129.104 106.926 132.822 109.642 134.455 113.344C136.087 117.045 135.615 121.684 132.294 125.486L132.292 125.489C129.601 128.542 125.241 128.574 121.687 126.927C118.125 125.276 115.112 121.83 115.112 117.565C115.112 116.482 115.473 115.282 116.028 114.119C116.587 112.948 117.363 111.772 118.241 110.724C119.118 109.677 120.112 108.741 121.115 108.061C122.106 107.391 123.171 106.926 124.176 106.926ZM125.304 111.602C123.638 111.659 121.955 112.765 120.638 114.771L120.636 114.773L120.635 114.775C119.552 116.4 119.349 118.138 119.859 119.722C120.356 121.267 121.55 122.715 123.376 123.764L123.555 123.864L123.559 123.866L123.563 123.869C126.147 125.336 128.645 124.441 130.149 122.513C131.667 120.567 132.109 117.63 130.503 115.139C128.805 112.507 126.948 111.547 125.304 111.602Z" fill="black"/>
<path d="M86.511 118.381C86.511 115.657 86.8386 113.044 87.1644 111.116C87.3275 110.151 87.4908 109.355 87.6135 108.799C87.7574 108.147 87.9276 107.504 88.0966 106.858C88.4691 107.23 88.8414 107.603 89.2139 107.975C89.4309 108.191 89.7396 108.5 90.1064 108.866C90.8402 109.6 91.8067 110.566 92.7384 111.497C93.4904 112.248 94.678 113.059 95.7117 113.697C96.2221 114.012 96.6833 114.277 97.0168 114.464C97.099 114.51 97.1739 114.551 97.2392 114.587C97.3207 114.532 97.4193 114.465 97.5348 114.384C97.8206 114.182 98.1788 113.921 98.5877 113.619C99.4017 113.018 100.411 112.264 101.405 111.55C102.397 110.839 103.393 110.153 104.184 109.69C104.575 109.462 104.946 109.27 105.255 109.161C105.406 109.108 105.586 109.06 105.767 109.057C105.937 109.054 106.224 109.093 106.431 109.34C106.59 109.511 106.706 109.731 106.793 109.938C106.892 110.172 106.981 110.449 107.062 110.755C107.225 111.367 107.37 112.144 107.497 113.016C107.75 114.763 107.937 116.946 108.034 119.077C108.132 121.207 108.141 123.306 108.034 124.882C107.981 125.665 107.897 126.349 107.771 126.85C107.71 127.095 107.628 127.341 107.509 127.539C107.401 127.717 107.157 128.025 106.73 128.025C106.098 128.025 105.556 127.728 105.124 127.271C104.7 126.823 104.361 126.202 104.095 125.471C103.561 124.008 103.267 121.964 103.267 119.54C103.267 118.661 103.258 118.043 103.204 117.611C103.163 117.286 103.106 117.168 103.086 117.133C103.046 117.129 102.927 117.129 102.66 117.208C102.263 117.326 101.716 117.563 100.934 117.922L100.925 117.926L100.916 117.93C100.357 118.165 99.5985 118.576 98.9622 118.939C98.648 119.119 98.3703 119.283 98.1712 119.403C98.0012 119.505 97.8325 119.608 97.6639 119.713L97.4422 119.684C97.3538 119.668 97.2045 119.633 97.1113 119.605C96.9249 119.549 96.6611 119.455 96.3162 119.296C95.6269 118.979 94.611 118.404 93.2368 117.362C92.5705 116.857 92.0601 116.543 91.6729 116.414C91.4868 116.351 91.3643 116.344 91.287 116.355C91.2213 116.364 91.162 116.389 91.0947 116.454C90.9276 116.616 90.7181 117.021 90.5668 117.908C90.4202 118.768 90.3448 119.972 90.3448 121.601C90.3448 123.249 90.3126 124.449 90.2506 125.323C90.1897 126.181 90.0973 126.774 89.9533 127.175C89.8796 127.38 89.7784 127.575 89.6268 127.732C89.4627 127.902 89.2701 127.994 89.0742 128.032C88.8544 128.074 88.6468 128.025 88.4283 128.025C88.0455 128.025 87.7899 127.784 87.6511 127.602C87.5061 127.411 87.3963 127.171 87.3085 126.923C87.1303 126.421 86.9865 125.728 86.8717 124.909C86.6406 123.259 86.511 120.973 86.511 118.381Z" fill="black"/>
<path d="M77.4652 118.122C77.4652 121.227 77.3359 123.895 77.1061 125.797C76.9919 126.743 76.8497 127.528 76.6759 128.089C76.5903 128.365 76.4853 128.627 76.3478 128.833C76.2246 129.017 75.9678 129.312 75.5484 129.312C75.2239 129.312 74.9893 129.133 74.8502 128.985C74.7075 128.833 74.5961 128.642 74.5066 128.452C74.3258 128.066 74.1727 127.545 74.0475 126.945C73.7952 125.734 73.6316 124.08 73.6316 122.244C73.6316 120.499 73.6233 119.203 73.5567 118.263C73.5235 117.794 73.4769 117.436 73.4159 117.166C73.3534 116.89 73.2859 116.755 73.2418 116.696C73.2156 116.661 73.2138 116.669 73.2086 116.668C73.1709 116.663 73.0646 116.666 72.8471 116.747C72.4038 116.912 71.7793 117.288 70.861 117.878L70.8528 117.883L70.8445 117.888C70.357 118.18 69.7118 118.595 69.1613 118.945C68.8893 119.118 68.6388 119.276 68.4485 119.391C68.3543 119.448 68.2676 119.5 68.1971 119.538C68.1628 119.556 68.1227 119.577 68.0827 119.595C68.0631 119.604 68.034 119.616 67.9996 119.628C67.9795 119.634 67.8964 119.662 67.7893 119.662C67.6808 119.662 67.5964 119.633 67.5781 119.627C67.5443 119.616 67.5154 119.604 67.4962 119.595C67.4568 119.578 67.4167 119.557 67.3821 119.539C67.3108 119.501 67.2213 119.449 67.1231 119.392C66.9329 119.281 66.6513 119.112 66.366 118.944C65.7716 118.595 65.0614 118.191 64.4705 117.925C63.6157 117.564 63.0417 117.323 62.6283 117.217C62.4254 117.165 62.3148 117.161 62.2613 117.167C62.2542 117.168 62.249 117.169 62.2453 117.17C62.2319 117.187 62.1936 117.246 62.1535 117.396C62.109 117.562 62.0735 117.796 62.0486 118.122C61.9985 118.776 61.9982 119.689 61.9982 120.956C61.9982 123.002 61.8611 124.517 61.6266 125.498C61.5124 125.975 61.3587 126.399 61.1333 126.692C61.0166 126.843 60.8478 127.002 60.6127 127.08C60.3586 127.165 60.1072 127.129 59.8973 127.024C59.5375 126.844 59.294 126.463 59.1198 126.108C58.9289 125.718 58.7511 125.208 58.5883 124.595C58.2619 123.365 57.9756 121.645 57.7804 119.466V119.466C57.5856 117.26 57.4882 115.119 57.472 113.459C57.4638 112.631 57.4758 111.915 57.5071 111.369C57.5227 111.096 57.5436 110.857 57.5708 110.663C57.5942 110.496 57.632 110.28 57.7154 110.113L57.7261 110.092L57.7387 110.071C57.9999 109.636 58.4605 109.531 58.8207 109.537C59.1823 109.543 59.5822 109.654 59.976 109.811C60.7244 110.11 61.6101 110.643 62.4854 111.311L62.6603 111.446L62.6627 111.448C63.6922 112.265 64.951 113.075 65.9811 113.684C66.4946 113.988 66.9455 114.238 67.2757 114.41C67.3907 114.47 67.489 114.519 67.5684 114.558C67.655 114.507 67.7649 114.441 67.8952 114.358C68.2441 114.137 68.7215 113.816 69.2659 113.428C70.3553 112.652 71.6917 111.621 72.7926 110.586L77.4652 106.084V118.122Z" fill="black"/>
<path d="M51.884 109.686C51.8839 109.754 51.8649 109.822 51.8505 109.867C51.8336 109.92 51.8105 109.98 51.7832 110.044C51.7283 110.173 51.6495 110.337 51.5516 110.529C51.3554 110.914 51.0741 111.427 50.7305 112.031C50.0429 113.24 49.1003 114.823 48.0785 116.492C46.0368 119.826 43.6681 123.519 42.376 125.261C41.4963 126.446 40.4757 127.426 39.5127 128.112C38.563 128.789 37.625 129.211 36.9153 129.211H36.1985C35.9291 129.211 35.679 129.161 35.5049 129.003C35.3139 128.829 35.2832 128.593 35.3132 128.388C35.3424 128.189 35.4321 127.977 35.5415 127.773C35.6529 127.565 35.7963 127.345 35.9506 127.125C36.2507 126.697 36.6358 126.213 36.9083 125.839C37.0507 125.644 37.168 125.472 37.2487 125.329C37.289 125.258 37.3169 125.2 37.3342 125.154C37.3416 125.135 37.3453 125.12 37.348 125.109C37.3344 125.078 37.3117 125.031 37.2783 124.968C37.2108 124.842 37.1089 124.666 36.9745 124.446C36.7061 124.007 36.3161 123.402 35.8322 122.674C34.8647 121.22 33.5272 119.283 32.0499 117.22C30.0691 114.458 28.7507 112.524 27.983 111.221C27.6005 110.571 27.3456 110.064 27.2162 109.681C27.1518 109.491 27.1122 109.314 27.1121 109.156C27.1119 108.996 27.1533 108.827 27.2814 108.699L27.3524 108.632C27.713 108.308 28.1492 108.182 28.6563 108.283C29.1707 108.385 29.7407 108.716 30.3841 109.246C31.5941 110.242 33.169 112.03 35.2684 114.708L35.6955 115.256L35.6967 115.257L39.9715 120.852L43.8759 115.049C45.7395 112.267 46.8286 110.695 47.6436 109.822C48.0552 109.382 48.4137 109.101 48.7849 108.934C49.1597 108.766 49.5229 108.726 49.9202 108.726C50.4185 108.726 50.8756 108.799 51.2194 108.935C51.3908 109.002 51.5491 109.092 51.6688 109.209C51.7911 109.329 51.884 109.49 51.884 109.686Z" fill="black"/>
<path fill-rule="evenodd" clip-rule="evenodd" d="M0.025876 112.412C-0.0835008 111.975 0.179265 111.642 0.340337 111.48C0.524991 111.294 0.780237 111.124 1.06108 110.966C1.63117 110.645 2.46494 110.287 3.50142 109.894L3.69499 109.823C4.69635 109.47 6.1927 109.17 7.86753 108.934C9.66865 108.68 11.7247 108.493 13.694 108.401C15.6604 108.308 17.558 108.309 19.0377 108.434C19.7749 108.497 20.4313 108.592 20.9482 108.731C21.2064 108.8 21.4493 108.885 21.6568 108.994C21.8536 109.096 22.0681 109.245 22.2138 109.468C22.2145 109.469 22.2154 109.471 22.2162 109.472C22.2178 109.474 22.2197 109.477 22.2213 109.479C22.484 109.881 22.4993 110.334 22.3056 110.742C22.1306 111.11 21.8048 111.406 21.4489 111.639C20.7296 112.112 19.6448 112.488 18.3945 112.709C17.315 112.925 16.5728 113.092 16.0299 113.324C15.5213 113.541 15.2288 113.799 15.0241 114.195C14.7998 114.629 14.6548 115.279 14.5761 116.341C14.4981 117.394 14.4889 118.774 14.4889 120.629C14.4889 122.786 14.3454 124.747 14.0875 126.183C13.9595 126.895 13.7973 127.514 13.593 127.969C13.4915 128.195 13.3641 128.417 13.1974 128.592C13.0277 128.769 12.7722 128.94 12.4374 128.94C12.1008 128.94 11.8525 128.748 11.7072 128.601C11.5502 128.442 11.4151 128.237 11.298 128.019C11.0614 127.58 10.8396 126.976 10.6485 126.265C10.2643 124.836 9.9784 122.875 9.97839 120.691C9.97839 120.655 9.98063 120.62 9.98202 120.585C9.98411 120.532 9.98724 120.454 9.99099 120.355C9.99848 120.157 10.0088 119.873 10.0203 119.531C10.0434 118.846 10.0712 117.927 10.0896 116.99C10.1081 116.052 10.1171 115.102 10.1034 114.352C10.0965 113.977 10.0841 113.66 10.0654 113.424C10.0588 113.341 10.0509 113.272 10.0438 113.217C9.92642 113.181 9.74347 113.15 9.49265 113.132C8.98631 113.095 8.32475 113.119 7.64901 113.172C6.97895 113.224 6.31877 113.302 5.8245 113.368C5.57794 113.401 5.37362 113.43 5.23144 113.452C5.12765 113.467 5.01717 113.494 4.91116 113.494C3.48033 113.494 2.39959 113.442 1.65293 113.334C1.28364 113.281 0.959441 113.209 0.705431 113.104C0.488937 113.014 0.128558 112.822 0.025876 112.412Z" fill="black"/>
<path d="M60.688 30.2744C60.0564 31.2308 59.4011 32.2107 58.7206 33.2131C42.5772 56.9932 32.8451 79.8222 44.9647 93.5338H3.5C3.51739 93.5083 27.3502 58.5601 49.1513 26.5915C49.3746 26.2641 49.597 25.9402 49.818 25.6193L67.2973 0.000152588H81.3436L60.688 30.2744Z" fill="black"/>
<path d="M48.5772 65.0792C54.6725 52.598 57.0797 56.5544 63.0465 61.8794C72.7875 70.5726 89.9994 93.5338 74.7731 93.5338H53.9637C48.5771 93.5338 40.9499 80.6974 48.5772 65.0792Z" fill="black"/>
<path d="M131.312 93.5338H99.2315C90.5384 93.5338 87.5199 92.9773 85.0209 87.2059C79.0915 73.5117 75.7047 68.1154 61.5568 53.8015C56.9202 49.1106 62.1375 38.7871 70.2931 29.0791C76.5416 21.6413 80.72 19.6673 80.72 19.6673L131.312 93.5338Z" fill="black"/>
</svg>
